<svg width="38" height="38" viewBox="0 0 38 38" fill="none" xmlns="http://www.w3.org/2000/svg">
<path d="M21.0583 12.8408L23.1483 17.0208C23.4333 17.5908 24.1933 18.1608 24.8267 18.2558L28.6108 18.8892C31.0333 19.3008 31.6033 21.0425 29.8617 22.7842L26.9167 25.745C26.4258 26.2358 26.1408 27.2017 26.2992 27.8983L27.1383 31.5558C27.8033 34.4375 26.2675 35.5617 23.7183 34.0575L20.1717 31.9517C19.5225 31.5717 18.4775 31.5717 17.8283 31.9517L14.2658 34.0417C11.7167 35.5458 10.1808 34.4217 10.8458 31.54L11.685 27.8825C11.8433 27.2017 11.5583 26.2358 11.0675 25.7292L8.13833 22.8C6.39667 21.0583 6.96667 19.3008 9.38917 18.905L13.1733 18.2717C13.8067 18.1608 14.5667 17.6067 14.8517 17.0367L16.9417 12.8567C18.0658 10.5767 19.9342 10.5767 21.0583 12.8408Z" fill="#9BAC8A"/>
<path d="M9.5 15.4375C8.85083 15.4375 8.3125 14.8992 8.3125 14.25V3.16667C8.3125 2.5175 8.85083 1.97917 9.5 1.97917C10.1492 1.97917 10.6875 2.5175 10.6875 3.16667V14.25C10.6875 14.8992 10.1492 15.4375 9.5 15.4375Z" fill="#9BAC8A"/>
<path d="M28.5 15.4375C27.8508 15.4375 27.3125 14.8992 27.3125 14.25V3.16667C27.3125 2.5175 27.8508 1.97917 28.5 1.97917C29.1492 1.97917 29.6875 2.5175 29.6875 3.16667V14.25C29.6875 14.8992 29.1492 15.4375 28.5 15.4375Z" fill="#9BAC8A"/>
<path d="M19 7.52083C18.3508 7.52083 17.8125 6.9825 17.8125 6.33333V3.16667C17.8125 2.5175 18.3508 1.97917 19 1.97917C19.6492 1.97917 20.1875 2.5175 20.1875 3.16667V6.33333C20.1875 6.9825 19.6492 7.52083 19 7.52083Z" fill="#9BAC8A"/>
</svg>
