<?xml version="1.0" encoding="UTF-8"?>
<svg id="Capa_1" data-name="Capa 1" xmlns="http://www.w3.org/2000/svg" viewBox="0 0 600 600">
  <defs>
    <style>
      .cls-1 {
        fill: #1d352e;
        stroke-width: 0px;
      }
    </style>
  </defs>
  <path class="cls-1" d="M129.03,113.46c-5.61-4.18-11.72-5.41-17.71-6.73-5.59-1.23-11.3-1.87-16.93-2.93-7.27-1.37-10.8-6.55-8.91-13.65,1.47-5.52,3.47-10.91,5.46-16.28,1.64-4.42,4.98-6.65,9.77-6.58,5.74.08,11.48-.06,17.21.24,12.82.66,21.78,8.03,29.63,17.35,1.41,1.67,2.24,5.14,4.82,4.38,2.85-.84,4.54-3.64,5.49-6.78,4.32-14.26,10.46-27.68,17.98-40.59,10.02-17.19,25.19-25.58,44.27-28.3,7.23-1.03,14.4-1.47,21.64-.17,9.65,1.73,16.83,6.85,21.01,15.68,1.61,3.4,3.22,4.51,7.18,3.97,47.23-6.49,91.41,2.57,133.03,25.81,41.73,23.3,71.32,57.76,94.38,98.92,9.03,16.12,16.06,32.88,21.66,50.34.96,3.01,2.3,3.54,5.09,2.97,15.32-3.13,29.54.12,42.56,8.36,12.87,8.14,18.08,21.16,20.15,35.38,3.89,26.65-1.1,51.81-15.07,74.88-8.5,14.04-20.13,24.46-36.87,27.78-2.3.46-4.76,1-7.01.63-5.68-.95-7.52,1.83-8.7,6.87-2.8,12.01-6.77,23.72-12.53,34.64-19.46,36.93-47.2,65.8-84.29,85.31-19.19,10.1-39.5,17.24-60.64,21.89-3.81.84-4.26,2.27-3.94,5.77,1.59,17.65,2.94,35.32,4.21,52.99.68,9.47-4.33,17.51-12.46,20.58-8.09,3.06-15.81.24-22.07-7.72-21.17-26.93-40.59-55.06-58.21-84.43-1.14-1.9-1.78-4.09-5.22-3.27-30.35,7.17-59.25,1.74-87.09-10.96-19.89-9.07-36.57-22.54-51.99-37.98-16.13-16.15-28.5-34.42-35.83-56.04-.82-2.42-2.21-2.57-4.24-2.21-23.49,4.21-40.48-5.95-53.67-24.43-17.73-24.85-22.38-52.47-17.39-82.16,4.55-27.07,28.59-40.15,50.26-40.51,5.38-.09,7.61-1.42,8.59-6.82,1.32-7.27,3.7-14.35,5.71-21.49.53-1.88,1.06-3.41-1.16-4.72-5.33-3.16-7.02-8.42-7.38-14.2-.61-9.78-.76-19.58,0-29.36.66-8.42,3.85-15.85,10.5-21.19,9.07-7.29,18.54-14.06,29.02-19.29,6.04-3.02,12.64-4.17,19.69-5.92ZM335.28,548.74c1.54-2.35.89-4.06.77-5.64-1.28-17-2.58-33.99-4.04-50.97-.3-3.55.48-4.92,4.4-5.34,25.23-2.72,49.23-10.18,71.71-21.67,43.8-22.37,73.4-56.93,86.57-104.8,2.12-7.72,5.65-14.63,9.94-21.26,2.51-3.88,5.77-5,9.94-2.88,3.36,1.71,6.84,2.76,10.65,2.77,12.86.03,21.61-7.13,28.21-17.03,12.77-19.18,17.4-40.57,14.23-63.26-3.4-24.35-25.34-35.92-47.68-25.62-2.83,1.3-5.19.77-7.75.14-21.25-5.27-42.52-10.45-63.71-15.96-4.59-1.2-7.9-1.6-9.4,3.96-.36,1.33-1.65,2.59-2.82,3.49-2.86,2.21-3.75,5.06-3.36,8.49,1.94,17.09-4.08,31.82-13.51,45.53-7.65,11.13-18.26,16.66-31.72,16.57-10.75-.07-21.38,2.27-32.54.96.92,2.82,1.71,5.01,2.34,7.24,1.03,3.61.83,7.53-1.59,10.14-9.8,10.57-19.95,20.7-35.57,22.12-13.4,1.22-26.23.32-37.88-7.44-3.76-2.5-4.5-8.77-9.17-8.95-4.36-.17-8.92,1.26-13.48,1.49-11.45.58-22.71,1.51-28.91,13.69-1.62,3.19-5.5,3.24-8.65,1.93-3.3-1.38-4.75-4.23-4.09-7.83,1.31-7.08,4.87-12.89,10.29-17.54,2.13-1.83,4.44-3.44,6.69-5.17-.42-.45-.61-.83-.87-.9-.97-.26-1.97-.4-2.95-.63-9.54-2.25-19.59-4.1-26.08-12.13-9.57-11.85-18.04-24.47-19.15-40.49-.4-5.77-5.05-8.99-8.61-12.69-2.14-2.22-4.8-.08-7.1.48-31.9,7.82-63.8,15.68-95.66,23.68-3.36.84-5.34.88-4.75-3.29.48-3.38-.96-4.42-4.24-4.2-17.99,1.18-28.54,8.52-31.68,24.74-4.72,24.37.1,46.94,13.36,67.73,4.15,6.51,9.71,11.74,16.96,14.71,6.06,2.48,12.4,3.67,18.6.56,9.56-4.8,19.69-1.73,24.05,8.02,4.68,10.46,10.23,20.31,16.66,29.84,19.86,29.41,44.98,52.29,79.34,62.78,23.72,7.24,47.96,10.96,70.64-4.29,2.77-1.86,3.42.31,4.43,1.99,11.62,19.32,22.69,38.98,36.39,57,7.24,9.52,13.68,19.65,20.8,29.96ZM379.48,190.6c-2.37-.96-3.44-1.42-4.53-1.83-18.98-7.12-38.26-13.06-58.53-15.22-2.27-.24-4.38-.78-4.72-3.63-.32-2.73,1.33-3.98,3.53-4.84,2.99-1.17,6.03-2.15,9.23-2.53,23.06-2.72,42.92,5.22,60.36,19.38,5.75,4.67,11.32,7.44,18.56,8.3,8.47,1.01,16.67,4.01,25.41,1.17,2.86-.93,6.58-.12,8.21,2.65,2.26,3.83,5.76,4.2,9.35,4.9,3.31.65,6.62,1.28,9.93,1.9,9.71,1.82,19.43,3.62,28.99,5.4.8-1.54.04-2.41-.28-3.29-16.98-46.93-44.37-85.65-87.52-112.2-37.58-23.11-78.24-32.98-122.17-29.54-2.27.18-3.82.46-4.54,3.43-6.03,24.69-20.17,44.67-37.57,62.49-10.95,11.21-24.2,19.84-35.46,30.78-16.41,15.95-36.79,26.02-56.35,37.33-11.22,6.48-23.14,9.97-35.94,10.78-2.27.14-3.77.66-4.45,3.09-2.22,7.95-4.6,15.86-6.89,23.8-.77,2.68-.36,4.22,3.06,3.57,24.32-4.69,48.65-9.31,72.98-13.91,1.74-.33,2.98-.61,3.64-2.72,2.5-8.1,5.09-10.22,13.84-10.24,7.71-.02,15.11-1.37,22.38-3.57,20.96-6.34,42.22-6.88,63.52-2.69,11.84,2.33,23.89,4.89,33.25,13.55,1.94,1.8,2.85-.04,3.69-.76,7.81-6.73,17.54-9.05,26.98-12.07,13.62-4.34,27.23-8.73,42.03-13.48ZM415.08,229.95c1.13-12.12.37-15.85-14.91-20.43-8.05-2.41-16.29-2.29-24.56-1.44-14.22,1.46-27.77,5.08-40.37,12.03-4.43,2.45-5.67,6.05-4.36,10.62.73,2.57,1.72,5.13,3,7.47,5.02,9.17,10.19,18.26,15.34,27.36,2.3,4.06,5.58,7.15,9.6,9.49,14.3,8.3,44.37,5.09,51.73-19.07,2.62-8.6,4.93-17.19,4.53-26.04ZM202.99,245.7c.17,8.02,2.4,16,5.43,23.69,4.03,10.25,11.36,17.4,22.59,18.33,11.81.98,23.07-2.06,33.35-8.2,2.2-1.32,3.94-3.11,5.37-5.26,8.2-12.3,13.54-25.96,18.99-39.58,1.28-3.19.56-5.04-2.62-6.29-25.11-9.83-50.28-15.2-76.15-2.32-3.75,1.87-6.05,4.18-6.47,8.19-.38,3.67-1.14,7.35-.49,11.44ZM274.87,302.11c3.07,1,4.65,3.29,7.29,2.63,9.14-2.3,18.06-.52,26.99,1.33,9.49,1.97,18.74,1.13,27.79-2.27,1.7-.64,3.85-.84,2.17-3.66-9.86-16.61-19.65-33.26-29.49-49.89-.55-.94-.59-2.61-2.15-2.4-1.33.18-1.44,1.69-1.9,2.73-3.75,8.46-7.37,16.99-11.25,25.39-4.55,9.83-9.48,19.44-19.46,26.14Z"/>
  <path class="cls-1" d="M247.44,326.7c9.19,24.3,23.9,42.59,49.68,48.98.23,1.55-.39,1.76-.8,1.69-10.48-1.6-21.12-2.73-31.07-6.5-16.23-6.16-23.21-21.57-18.91-40.34.3-1.29.72-2.55,1.09-3.82Z"/>
  <path class="cls-1" d="M511.02,294.21c.59-15.74,7.29-28.61,19.22-38.89.91-.78,2.02-2.53,3.36-1.28,1.83,1.72-.58,2.57-1.38,3.5-7.67,8.95-10.58,19.3-9.32,30.93.53,4.93-.04,9.74-1.75,14.39-.87,2.38-1.7,4.92-5.01,4.78-3.69-.16-4.03-3.13-4.5-5.72-.45-2.47-.42-5.02-.62-7.71Z"/>
  <path class="cls-1" d="M85.16,316.54c.1,5.11-.54,10.08-2.38,14.88-.87,2.26-2.15,3.78-4.8,3.59-2.51-.18-3.37-2.01-3.9-4.02-1.4-5.31-1.39-10.65-.05-15.99,2.86-11.36,1.42-22.02-5.09-31.9-.66-1.01-2.32-2.25-.82-3.45,1.49-1.19,2.37.68,3.16,1.56,8.97,10.06,13.83,21.76,13.88,35.34Z"/>
  <path class="cls-1" d="M248.32,386.46c-7.54.03-15.98-8.64-15.88-16.31.06-4.55,2.32-6.01,6.13-3.61,5.49,3.45,10.08,7.95,13.39,13.55,2.19,3.7.52,6.36-3.64,6.37Z"/>
  <path class="cls-1" d="M273.6,163.62c4.99-.11,9.77.87,14.45,2.34,2.27.71,3.86,2.03,3.6,4.76-.25,2.58-2.13,3.32-4.18,3.67-23.83,4.02-45.85,13.3-67.61,23.34-1.2.56-2.49,1.09-3.79,1.24-1.72.21-3.38-.18-4.25-2.02-.77-1.63-.18-3.04.95-4.15,16.95-16.68,36.43-28.08,60.82-29.19Z"/>
  <path class="cls-1" d="M361.67,114.84c-26.65-.98-53.07-3.79-78.5-12.46-2.88-.98-8.12-1.34-7.44-5,.42-2.25,5.63-.36,8.65.08,30.84,4.44,61.68,8.92,92.51,13.39,1.44.21,3.66-.2,3.76,1.66.12,2.21-2.2,2.26-3.82,2.29-5.05.1-10.11.04-15.16.04Z"/>
  <path class="cls-1" d="M264.77,114.69c16.89,4.49,33.78,8.98,50.67,13.47l-.4,1.54c-17.82-.93-34.74-5.3-50.69-13.39.14-.54.28-1.08.42-1.61Z"/>
  <path class="cls-1" d="M373.25,130.43c-10.72,3.35-37.26-.79-44.96-6.62,15.8,2.32,30.38,4.47,44.96,6.62Z"/>
  <path class="cls-1" d="M378.23,245.66c-.24,5.61-2.36,11.46-8.79,14.7-5.01,2.53-9.92,1.62-14.11-1.93-6.17-5.24-7.48-12.19-5.8-19.72,1.73-7.77,8.12-12.3,15.45-11.46,7.36.85,13.15,8.38,13.25,18.41Z"/>
  <path class="cls-1" d="M269.05,250.62c-.11,11.51-9.35,19.56-18.81,16.39-7.34-2.46-11.79-11.29-10.24-20.33,1.4-8.21,7.58-13.71,15.1-13.43,7.97.3,14.05,7.86,13.95,17.37Z"/>
</svg>