<?xml version="1.0" encoding="UTF-8"?>
<svg id="Capa_1" data-name="Capa 1" xmlns="http://www.w3.org/2000/svg" viewBox="0 0 1321.25 332.75">
  <defs>
    <style>
      .cls-1 {
        fill: #1d352e;
      }

      .cls-1, .cls-2 {
        stroke-width: 0px;
      }

      .cls-2 {
        fill: #9bac8a;
      }
    </style>
  </defs>
  <g>
    <path class="cls-1" d="M384.63,230.11V60.54h13.03v69.63c7.19-15.05,22.46-23.36,41.55-23.36,13.7,0,24.93,4.49,33.91,13.25,9.21,8.76,13.7,21.34,13.7,37.51v72.55h-13.48v-70.3c0-25.15-13.48-40.43-35.71-40.43-10.56,0-19.76,3.59-27.63,10.78-7.86,7.19-11.9,17.97-11.9,32.34v67.61h-13.48Z"/>
    <path class="cls-1" d="M625.85,175.31h-101.07c2.02,26.73,19.32,44.92,48.74,44.92,15.5,0,33.24-5.62,44.02-14.37l6.29,10.33c-11.68,9.21-30.77,16.62-50.54,16.62-44.25,0-62.44-31.67-62.44-63.11,0-18.19,5.39-33.02,16.4-44.92,11-11.9,25.38-17.74,43.35-17.74,16.17,0,29.42,5.17,39.98,15.72,10.56,10.33,15.95,24.26,15.95,42,0,1.57-.22,5.17-.67,10.56ZM524.78,162.95h87.82c-.22-26.73-17.52-43.57-42-43.57s-43.12,17.29-45.82,43.57Z"/>
    <path class="cls-1" d="M664.71,230.11h-13.48V60.54h13.48v169.57Z"/>
    <path class="cls-1" d="M711.65,230.11h-13.48V60.54h13.48v169.57Z"/>
    <path class="cls-1" d="M754.77,125.22c11.9-12.13,26.73-18.19,44.7-18.19s32.79,6.06,44.7,18.19c11.9,12.13,17.74,26.95,17.74,44.7s-5.84,32.79-17.74,44.92c-11.9,12.13-26.73,18.19-44.7,18.19s-32.79-6.06-44.7-18.19c-11.9-12.13-17.74-27.18-17.74-44.92s5.84-32.57,17.74-44.7ZM834.5,206.08c9.21-9.88,13.92-22.01,13.92-36.16s-4.72-26.28-13.92-35.94c-9.21-9.66-20.89-14.6-35.04-14.6s-25.61,4.94-35.04,14.82c-9.21,9.66-13.92,21.56-13.92,35.71s4.72,26.28,13.92,36.16c9.43,9.66,21.11,14.6,35.04,14.6s25.83-4.94,35.04-14.6Z"/>
    <path class="cls-2" d="M973.08,106.13h37.28v123.98h-37.28v-10.78c-10.11,9.21-22.23,13.93-36.61,13.93-17.74,0-32.12-6.29-43.57-18.87-11.45-12.58-17.07-28.08-17.07-46.72s5.62-34.14,17.07-46.27c11.45-12.35,26.05-18.42,43.57-18.42,14.37,0,26.5,4.72,36.61,14.37v-11.23ZM964.32,147.68c-5.62-5.61-12.35-8.53-20.44-8.53s-15.05,2.92-20.44,8.53c-5.39,5.62-8.08,12.35-8.08,20.21s2.69,15.05,8.08,20.66c5.62,5.62,12.35,8.54,20.44,8.54s14.82-2.92,20.44-8.54c5.62-5.61,8.31-12.58,8.31-20.66s-2.7-14.6-8.31-20.21Z"/>
    <path class="cls-2" d="M1149.39,121.4c11.9,12.35,17.74,27.85,17.74,46.72s-5.84,34.36-17.52,46.72c-11.68,12.35-26.28,18.42-44.02,18.42-14.15,0-25.83-4.72-35.04-14.37v11.23h-38.18V58.74h39.53v57.05c8.99-8.54,20.21-12.8,33.47-12.8,17.74,0,32.34,6.06,44.02,18.42ZM1126.71,167.9c0-7.86-2.69-14.6-8.08-20.21-5.17-5.61-11.9-8.53-20.21-8.53s-14.82,2.92-20.21,8.53c-5.17,5.62-7.86,12.35-7.86,20.21,0,16.4,11.9,28.97,28.07,28.97s28.3-12.58,28.3-28.97Z"/>
    <path class="cls-2" d="M1181.74,106.13h39.76v70.3c0,12.35,7.86,20.66,19.77,20.66s19.99-8.31,19.99-20.66v-70.3h39.76v69.85c0,36.61-22.69,57.27-59.74,57.27s-59.52-20.66-59.52-57.27v-69.85Z"/>
  </g>
  <g>
    <path class="cls-1" d="M79.24,72.4c-2.83-2.11-5.91-2.73-8.92-3.39-2.81-.62-5.69-.94-8.53-1.48-3.66-.69-5.44-3.3-4.49-6.88.74-2.78,1.75-5.5,2.75-8.2.83-2.23,2.51-3.35,4.92-3.31,2.89.04,5.78-.03,8.67.12,6.46.33,10.97,4.04,14.93,8.74.71.84,1.13,2.59,2.43,2.2,1.43-.42,2.29-1.83,2.77-3.41,2.17-7.19,5.27-13.94,9.06-20.45,5.05-8.66,12.69-12.89,22.3-14.26,3.64-.52,7.25-.74,10.9-.08,4.86.87,8.48,3.45,10.58,7.9.81,1.71,1.62,2.27,3.62,2,23.79-3.27,46.05,1.3,67.02,13,21.02,11.74,35.93,29.1,47.55,49.83,4.55,8.12,8.09,16.56,10.91,25.36.49,1.52,1.16,1.78,2.57,1.49,7.72-1.58,14.88.06,21.44,4.21,6.48,4.1,9.11,10.66,10.15,17.82,1.96,13.42-.55,26.1-7.59,37.72-4.28,7.07-10.14,12.32-18.57,13.99-1.16.23-2.4.5-3.53.32-2.86-.48-3.79.92-4.38,3.46-1.41,6.05-3.41,11.95-6.31,17.45-9.8,18.61-23.78,33.15-42.46,42.98-9.67,5.09-19.9,8.69-30.55,11.03-1.92.42-2.14,1.14-1.98,2.9.8,8.89,1.48,17.79,2.12,26.69.34,4.77-2.18,8.82-6.28,10.37-4.08,1.54-7.96.12-11.12-3.89-10.66-13.57-20.45-27.74-29.32-42.53-.57-.96-.89-2.06-2.63-1.65-15.29,3.61-29.85.88-43.87-5.52-10.02-4.57-18.42-11.35-26.19-19.13-8.12-8.14-14.36-17.34-18.05-28.23-.41-1.22-1.11-1.3-2.14-1.11-11.84,2.12-20.39-3-27.04-12.31-8.93-12.52-11.27-26.43-8.76-41.39,2.29-13.64,14.4-20.22,25.32-20.41,2.71-.05,3.83-.72,4.33-3.44.66-3.66,1.86-7.23,2.88-10.83.27-.95.53-1.72-.59-2.38-2.69-1.59-3.54-4.24-3.72-7.15-.31-4.93-.38-9.86,0-14.79.33-4.24,1.94-7.98,5.29-10.67,4.57-3.67,9.34-7.08,14.62-9.72,3.04-1.52,6.37-2.1,9.92-2.98ZM183.14,291.68c.78-1.18.45-2.04.39-2.84-.64-8.56-1.3-17.12-2.03-25.68-.15-1.79.24-2.48,2.22-2.69,12.71-1.37,24.8-5.13,36.13-10.91,22.07-11.27,36.98-28.68,43.61-52.8,1.07-3.89,2.85-7.37,5.01-10.71,1.26-1.96,2.91-2.52,5.01-1.45,1.69.86,3.45,1.39,5.37,1.39,6.48.02,10.89-3.59,14.21-8.58,6.43-9.66,8.76-20.44,7.17-31.87-1.71-12.27-12.77-18.1-24.02-12.91-1.42.66-2.62.39-3.91.07-10.7-2.65-21.42-5.26-32.09-8.04-2.31-.6-3.98-.81-4.74,1.99-.18.67-.83,1.3-1.42,1.76-1.44,1.11-1.89,2.55-1.69,4.27.98,8.61-2.06,16.03-6.81,22.94-3.85,5.61-9.2,8.39-15.98,8.35-5.42-.04-10.77,1.14-16.39.48.46,1.42.86,2.52,1.18,3.65.52,1.82.42,3.79-.8,5.11-4.94,5.32-10.05,10.43-17.92,11.14-6.75.61-13.21.16-19.08-3.75-1.89-1.26-2.27-4.42-4.62-4.51-2.2-.09-4.49.63-6.79.75-5.77.29-11.44.76-14.56,6.9-.82,1.61-2.77,1.63-4.36.97-1.66-.69-2.39-2.13-2.06-3.95.66-3.56,2.45-6.49,5.19-8.84,1.07-.92,2.24-1.73,3.37-2.61-.21-.23-.31-.42-.44-.45-.49-.13-.99-.2-1.48-.32-4.81-1.13-9.87-2.06-13.14-6.11-4.82-5.97-9.09-12.33-9.65-20.4-.2-2.9-2.55-4.53-4.34-6.39-1.08-1.12-2.42-.04-3.58.24-16.07,3.94-32.14,7.9-48.19,11.93-1.69.42-2.69.44-2.39-1.66.24-1.71-.48-2.22-2.13-2.12-9.06.6-14.38,4.29-15.96,12.47-2.38,12.27.05,23.64,6.73,34.12,2.09,3.28,4.89,5.92,8.54,7.41,3.05,1.25,6.25,1.85,9.37.28,4.82-2.42,9.92-.87,12.11,4.04,2.36,5.27,5.15,10.23,8.39,15.03,10,14.82,22.66,26.34,39.97,31.63,11.95,3.65,24.16,5.52,35.58-2.16,1.39-.94,1.72.16,2.23,1,5.85,9.73,11.43,19.64,18.33,28.71,3.64,4.8,6.89,9.9,10.48,15.09ZM205.41,111.26c-1.19-.48-1.73-.72-2.28-.92-9.56-3.58-19.28-6.58-29.49-7.67-1.14-.12-2.21-.39-2.38-1.83-.16-1.38.67-2,1.78-2.44,1.51-.59,3.04-1.08,4.65-1.28,11.62-1.37,21.62,2.63,30.41,9.76,2.9,2.35,5.7,3.75,9.35,4.18,4.26.51,8.4,2.02,12.8.59,1.44-.47,3.31-.06,4.14,1.34,1.14,1.93,2.9,2.12,4.71,2.47,1.67.33,3.33.64,5,.96,4.89.91,9.79,1.82,14.61,2.72.4-.77.02-1.21-.14-1.66-8.55-23.64-22.35-43.15-44.09-56.52-18.93-11.64-39.41-16.61-61.54-14.88-1.14.09-1.92.23-2.29,1.73-3.04,12.44-10.16,22.5-18.93,31.48-5.51,5.65-12.19,9.99-17.86,15.5-8.27,8.04-18.53,13.11-28.39,18.8-5.65,3.27-11.66,5.02-18.1,5.43-1.14.07-1.9.33-2.24,1.56-1.12,4.01-2.32,7.99-3.47,11.99-.39,1.35-.18,2.13,1.54,1.8,12.25-2.36,24.51-4.69,36.76-7.01.88-.17,1.5-.31,1.83-1.37,1.26-4.08,2.56-5.15,6.97-5.16,3.88-.01,7.61-.69,11.28-1.8,10.56-3.2,21.27-3.47,32-1.35,5.97,1.17,12.04,2.47,16.75,6.82.98.9,1.44-.02,1.86-.38,3.93-3.39,8.83-4.56,13.59-6.08,6.86-2.19,13.72-4.4,21.17-6.79ZM223.35,131.08c.57-6.11.19-7.98-7.51-10.29-4.06-1.22-8.21-1.15-12.37-.72-7.16.74-13.99,2.56-20.34,6.06-2.23,1.23-2.86,3.05-2.2,5.35.37,1.3.87,2.59,1.51,3.76,2.53,4.62,5.13,9.2,7.73,13.78,1.16,2.05,2.81,3.6,4.84,4.78,7.2,4.18,22.35,2.57,26.06-9.61,1.32-4.33,2.49-8.66,2.28-13.12ZM116.5,139.02c.09,4.04,1.21,8.06,2.73,11.94,2.03,5.17,5.72,8.77,11.38,9.24,5.95.49,11.62-1.04,16.8-4.13,1.11-.66,1.98-1.57,2.71-2.65,4.13-6.2,6.82-13.08,9.57-19.94.64-1.61.28-2.54-1.32-3.17-12.65-4.95-25.33-7.66-38.36-1.17-1.89.94-3.05,2.11-3.26,4.12-.19,1.85-.58,3.7-.25,5.76ZM152.71,167.44c1.54.5,2.34,1.66,3.67,1.32,4.6-1.16,9.1-.26,13.6.67,4.78.99,9.44.57,14-1.14.86-.32,1.94-.42,1.09-1.84-4.97-8.37-9.9-16.76-14.85-25.13-.28-.47-.3-1.32-1.08-1.21-.67.09-.73.85-.96,1.37-1.89,4.26-3.71,8.56-5.67,12.79-2.29,4.95-4.77,9.79-9.8,13.17Z"/>
    <path class="cls-1" d="M138.89,179.82c4.63,12.24,12.04,21.45,25.03,24.67.12.78-.2.88-.4.85-5.28-.81-10.64-1.37-15.65-3.28-8.17-3.1-11.69-10.86-9.52-20.32.15-.65.36-1.28.55-1.93Z"/>
    <path class="cls-1" d="M271.68,163.46c.3-7.93,3.67-14.41,9.68-19.59.46-.39,1.02-1.28,1.69-.64.92.87-.29,1.29-.69,1.76-3.87,4.51-5.33,9.72-4.7,15.58.27,2.48-.02,4.91-.88,7.25-.44,1.2-.86,2.48-2.52,2.41-1.86-.08-2.03-1.58-2.27-2.88-.22-1.24-.21-2.53-.31-3.88Z"/>
    <path class="cls-1" d="M57.14,174.71c.05,2.58-.27,5.08-1.2,7.5-.44,1.14-1.08,1.9-2.42,1.81-1.26-.09-1.7-1.01-1.97-2.03-.7-2.68-.7-5.37-.02-8.06,1.44-5.72.71-11.09-2.56-16.07-.33-.51-1.17-1.13-.41-1.74.75-.6,1.2.34,1.59.79,4.52,5.07,6.97,10.96,6.99,17.8Z"/>
    <path class="cls-1" d="M139.34,209.93c-3.8.01-8.05-4.35-8-8.21.03-2.29,1.17-3.03,3.09-1.82,2.76,1.74,5.08,4.01,6.74,6.83,1.1,1.86.26,3.2-1.83,3.21Z"/>
    <path class="cls-1" d="M152.07,97.67c2.51-.06,4.92.44,7.28,1.18,1.14.36,1.95,1.02,1.81,2.4-.12,1.3-1.07,1.67-2.11,1.85-12.01,2.03-23.1,6.7-34.06,11.76-.61.28-1.25.55-1.91.63-.87.1-1.7-.09-2.14-1.02-.39-.82-.09-1.53.48-2.09,8.54-8.4,18.35-14.15,30.64-14.7Z"/>
    <path class="cls-1" d="M196.44,73.1c-13.42-.49-26.74-1.91-39.55-6.28-1.45-.5-4.09-.67-3.75-2.52.21-1.13,2.84-.18,4.36.04,15.54,2.23,31.07,4.49,46.6,6.75.72.11,1.84-.1,1.89.84.06,1.12-1.11,1.14-1.93,1.15-2.55.05-5.09.02-7.64.02Z"/>
    <path class="cls-1" d="M147.62,73.02c8.51,2.26,17.02,4.52,25.52,6.78l-.2.77c-8.98-.47-17.5-2.67-25.53-6.75.07-.27.14-.54.21-.81Z"/>
    <path class="cls-1" d="M202.27,80.95c-5.4,1.69-18.77-.4-22.65-3.33,7.96,1.17,15.31,2.25,22.65,3.33Z"/>
    <path class="cls-1" d="M204.78,139c-.12,2.83-1.19,5.77-4.43,7.41-2.52,1.27-5,.82-7.11-.97-3.11-2.64-3.77-6.14-2.92-9.93.87-3.92,4.09-6.2,7.79-5.77,3.71.43,6.62,4.22,6.67,9.28Z"/>
    <path class="cls-1" d="M149.78,141.5c-.06,5.8-4.71,9.85-9.48,8.25-3.7-1.24-5.94-5.69-5.16-10.24.71-4.14,3.82-6.9,7.61-6.76,4.01.15,7.08,3.96,7.03,8.75Z"/>
  </g>
</svg>