<?xml version="1.0" encoding="UTF-8"?>
<svg id="Capa_1" data-name="Capa 1" xmlns="http://www.w3.org/2000/svg" viewBox="0 0 847.94 555.56">
  <defs>
    <style>
      .cls-1 {
        fill: #1d352e;
      }

      .cls-1, .cls-2 {
        stroke-width: 0px;
      }

      .cls-2 {
        fill: #9bac8a;
      }
    </style>
  </defs>
  <g>
    <path class="cls-1" d="M20.7,518.15v-149.25h11.47v61.28c6.33-13.24,19.77-20.56,36.57-20.56,12.06,0,21.94,3.95,29.85,11.66,8.1,7.71,12.06,18.78,12.06,33.01v63.85h-11.86v-61.87c0-22.14-11.86-35.58-31.43-35.58-9.29,0-17.4,3.16-24.31,9.49s-10.48,15.81-10.48,28.47v59.5h-11.86Z"/>
    <path class="cls-1" d="M233.01,469.92h-88.95c1.78,23.52,17,39.53,42.9,39.53,13.64,0,29.26-4.94,38.74-12.65l5.53,9.09c-10.28,8.11-27.08,14.63-44.48,14.63-38.94,0-54.95-27.87-54.95-55.55,0-16.01,4.74-29.06,14.43-39.54,9.69-10.48,22.34-15.62,38.15-15.62,14.23,0,25.9,4.55,35.19,13.84,9.29,9.09,14.03,21.35,14.03,36.97,0,1.38-.2,4.55-.59,9.29ZM144.05,459.05h77.29c-.2-23.52-15.42-38.35-36.96-38.35s-37.95,15.22-40.33,38.35Z"/>
    <path class="cls-1" d="M267.21,518.15h-11.86v-149.25h11.86v149.25Z"/>
    <path class="cls-1" d="M308.52,518.15h-11.86v-149.25h11.86v149.25Z"/>
    <path class="cls-1" d="M346.48,425.84c10.48-10.67,23.52-16.01,39.34-16.01s28.86,5.34,39.34,16.01c10.48,10.67,15.62,23.72,15.62,39.34s-5.14,28.86-15.62,39.54c-10.48,10.67-23.52,16.01-39.34,16.01s-28.86-5.34-39.34-16.01c-10.48-10.67-15.62-23.92-15.62-39.54s5.14-28.66,15.62-39.34ZM416.65,497c8.1-8.7,12.26-19.37,12.26-31.83s-4.15-23.13-12.26-31.63c-8.1-8.5-18.38-12.85-30.84-12.85s-22.54,4.35-30.84,13.05c-8.1,8.5-12.26,18.98-12.26,31.43s4.15,23.13,12.26,31.83c8.3,8.5,18.58,12.85,30.84,12.85s22.73-4.35,30.84-12.85Z"/>
    <path class="cls-2" d="M538.62,409.03h32.81v109.12h-32.81v-9.49c-8.9,8.11-19.57,12.26-32.22,12.26-15.62,0-28.27-5.53-38.35-16.6-10.08-11.07-15.02-24.71-15.02-41.12s4.94-30.05,15.02-40.72c10.08-10.87,22.93-16.21,38.35-16.21,12.65,0,23.33,4.15,32.22,12.65v-9.88ZM530.92,445.6c-4.94-4.94-10.87-7.51-17.99-7.51s-13.24,2.57-17.99,7.51c-4.74,4.94-7.12,10.87-7.12,17.79s2.37,13.24,7.12,18.19c4.94,4.94,10.87,7.51,17.99,7.51s13.05-2.57,17.99-7.51,7.31-11.07,7.31-18.19-2.37-12.85-7.31-17.79Z"/>
    <path class="cls-2" d="M693.8,422.48c10.48,10.87,15.62,24.51,15.62,41.12s-5.14,30.24-15.42,41.12c-10.28,10.87-23.13,16.21-38.74,16.21-12.45,0-22.73-4.15-30.84-12.65v9.88h-33.6v-150.83h34.79v50.21c7.91-7.51,17.79-11.27,29.45-11.27,15.62,0,28.47,5.34,38.74,16.21ZM673.84,463.4c0-6.92-2.37-12.85-7.12-17.79-4.55-4.94-10.48-7.51-17.79-7.51s-13.05,2.57-17.79,7.51c-4.55,4.94-6.92,10.87-6.92,17.79,0,14.43,10.48,25.5,24.71,25.5s24.91-11.07,24.91-25.5Z"/>
    <path class="cls-2" d="M722.27,409.03h34.99v61.87c0,10.87,6.92,18.19,17.4,18.19s17.59-7.31,17.59-18.19v-61.87h34.99v61.48c0,32.22-19.97,50.41-52.58,50.41s-52.38-18.19-52.38-50.41v-61.48Z"/>
  </g>
  <g>
    <path class="cls-1" d="M342.47,82.36c-2.65-1.98-5.55-2.56-8.38-3.19-2.64-.58-5.35-.88-8.01-1.39-3.44-.65-5.11-3.1-4.22-6.46.69-2.61,1.64-5.16,2.58-7.7.78-2.09,2.36-3.15,4.62-3.11,2.71.04,5.43-.03,8.14.11,6.07.31,10.31,3.8,14.02,8.21.66.79,1.06,2.43,2.28,2.07,1.35-.4,2.15-1.72,2.6-3.21,2.04-6.75,4.95-13.1,8.51-19.2,4.74-8.13,11.92-12.1,20.95-13.39,3.42-.49,6.81-.69,10.24-.08,4.56.82,7.96,3.24,9.94,7.42.76,1.61,1.52,2.14,3.4,1.88,22.35-3.07,43.25,1.22,62.94,12.21,19.75,11.03,33.74,27.33,44.66,46.8,4.27,7.63,7.6,15.55,10.25,23.82.46,1.42,1.09,1.67,2.41,1.4,7.25-1.48,13.98.06,20.14,3.95,6.09,3.85,8.55,10.01,9.53,16.74,1.84,12.61-.52,24.51-7.13,35.43-4.02,6.64-9.53,11.57-17.44,13.14-1.09.22-2.25.47-3.31.3-2.69-.45-3.56.87-4.11,3.25-1.33,5.68-3.21,11.22-5.93,16.39-9.21,17.48-22.33,31.13-39.88,40.36-9.08,4.78-18.69,8.16-28.69,10.36-1.8.4-2.01,1.07-1.86,2.73.75,8.35,1.39,16.71,1.99,25.07.32,4.48-2.05,8.28-5.89,9.74-3.83,1.45-7.48.12-10.44-3.65-10.01-12.74-19.2-26.05-27.54-39.95-.54-.9-.84-1.93-2.47-1.55-14.36,3.39-28.03.82-41.21-5.19-9.41-4.29-17.3-10.66-24.6-17.97-7.63-7.64-13.49-16.28-16.95-26.52-.39-1.15-1.04-1.22-2.01-1.05-11.12,1.99-19.15-2.82-25.39-11.56-8.39-11.76-10.59-24.83-8.23-38.87,2.15-12.81,13.53-18.99,23.78-19.17,2.55-.04,3.6-.67,4.06-3.23.62-3.44,1.75-6.79,2.7-10.17.25-.89.5-1.61-.55-2.24-2.52-1.5-3.32-3.98-3.49-6.72-.29-4.63-.36-9.26,0-13.89.31-3.98,1.82-7.5,4.97-10.03,4.29-3.45,8.77-6.65,13.73-9.13,2.86-1.43,5.98-1.97,9.32-2.8ZM440.05,288.31c.73-1.11.42-1.92.36-2.67-.6-8.04-1.22-16.08-1.91-24.12-.14-1.68.23-2.33,2.08-2.53,11.94-1.29,23.29-4.82,33.93-10.25,20.72-10.58,34.73-26.94,40.96-49.59,1-3.65,2.67-6.92,4.7-10.06,1.19-1.84,2.73-2.37,4.7-1.36,1.59.81,3.24,1.3,5.04,1.31,6.08.01,10.23-3.37,13.35-8.06,6.04-9.07,8.23-19.19,6.73-29.93-1.61-11.52-11.99-17-22.56-12.12-1.34.62-2.46.37-3.67.06-10.05-2.49-20.12-4.94-30.14-7.55-2.17-.57-3.74-.76-4.45,1.87-.17.63-.78,1.22-1.33,1.65-1.35,1.05-1.77,2.39-1.59,4.01.92,8.09-1.93,15.05-6.39,21.54-3.62,5.27-8.64,7.88-15.01,7.84-5.09-.04-10.11,1.07-15.4.45.43,1.33.81,2.37,1.11,3.42.49,1.71.39,3.56-.75,4.8-4.64,5-9.44,9.79-16.83,10.47-6.34.58-12.41.15-17.92-3.52-1.78-1.18-2.13-4.15-4.34-4.24-2.06-.08-4.22.59-6.38.7-5.42.27-10.74.71-13.68,6.48-.77,1.51-2.6,1.53-4.09.91-1.56-.65-2.25-2-1.93-3.71.62-3.35,2.31-6.1,4.87-8.3,1.01-.86,2.1-1.63,3.17-2.45-.2-.21-.29-.39-.41-.42-.46-.12-.93-.19-1.39-.3-4.51-1.06-9.27-1.94-12.34-5.74-4.53-5.61-8.54-11.58-9.06-19.16-.19-2.73-2.39-4.25-4.07-6.01-1.01-1.05-2.27-.04-3.36.23-15.1,3.7-30.19,7.42-45.26,11.21-1.59.4-2.52.42-2.25-1.56.23-1.6-.46-2.09-2-1.99-8.51.56-13.5,4.03-14.99,11.71-2.23,11.53.05,22.21,6.32,32.05,1.96,3.08,4.59,5.56,8.03,6.96,2.87,1.18,5.87,1.73,8.8.26,4.52-2.27,9.32-.82,11.38,3.79,2.21,4.95,4.84,9.61,7.88,14.12,9.4,13.92,21.28,24.74,37.54,29.71,11.22,3.43,22.69,5.18,33.42-2.03,1.31-.88,1.62.15,2.1.94,5.5,9.14,10.74,18.44,17.22,26.97,3.42,4.51,6.47,9.3,9.84,14.18ZM460.97,118.85c-1.12-.45-1.63-.67-2.14-.87-8.98-3.37-18.1-6.18-27.69-7.2-1.07-.11-2.07-.37-2.23-1.72-.15-1.29.63-1.88,1.67-2.29,1.41-.55,2.85-1.02,4.37-1.2,10.91-1.29,20.31,2.47,28.56,9.17,2.72,2.21,5.35,3.52,8.78,3.93,4.01.48,7.89,1.9,12.02.55,1.35-.44,3.11-.06,3.89,1.26,1.07,1.81,2.73,1.99,4.42,2.32,1.56.31,3.13.6,4.7.9,4.6.86,9.19,1.71,13.72,2.56.38-.73.02-1.14-.13-1.56-8.03-22.2-20.99-40.53-41.41-53.08-17.78-10.94-37.02-15.6-57.8-13.98-1.07.08-1.81.22-2.15,1.62-2.85,11.68-9.54,21.13-17.78,29.56-5.18,5.3-11.45,9.39-16.78,14.56-7.77,7.55-17.41,12.31-26.66,17.66-5.31,3.07-10.95,4.72-17,5.1-1.07.07-1.79.31-2.11,1.46-1.05,3.76-2.18,7.51-3.26,11.26-.37,1.27-.17,2,1.45,1.69,11.51-2.22,23.02-4.41,34.53-6.58.82-.16,1.41-.29,1.72-1.29,1.19-3.83,2.41-4.83,6.55-4.85,3.65,0,7.15-.65,10.59-1.69,9.92-3,19.98-3.26,30.05-1.27,5.6,1.1,11.31,2.32,15.73,6.41.92.85,1.35-.02,1.75-.36,3.69-3.19,8.3-4.28,12.76-5.71,6.44-2.05,12.88-4.13,19.88-6.38ZM477.81,137.47c.53-5.74.17-7.5-7.05-9.67-3.81-1.14-7.71-1.08-11.62-.68-6.73.69-13.14,2.4-19.1,5.69-2.1,1.16-2.68,2.86-2.06,5.03.35,1.22.81,2.43,1.42,3.54,2.38,4.34,4.82,8.64,7.26,12.94,1.09,1.92,2.64,3.39,4.54,4.49,6.77,3.93,20.99,2.41,24.47-9.02,1.24-4.07,2.33-8.13,2.14-12.32ZM377.46,144.92c.08,3.79,1.14,7.57,2.57,11.21,1.91,4.85,5.38,8.23,10.69,8.68,5.59.46,10.92-.97,15.78-3.88,1.04-.62,1.86-1.47,2.54-2.49,3.88-5.82,6.41-12.28,8.99-18.73.6-1.51.27-2.38-1.24-2.97-11.88-4.65-23.79-7.19-36.03-1.1-1.78.88-2.86,1.98-3.06,3.87-.18,1.74-.54,3.48-.23,5.41ZM411.47,171.61c1.45.47,2.2,1.56,3.45,1.24,4.32-1.09,8.55-.25,12.77.63,4.49.93,8.87.53,13.15-1.07.81-.3,1.82-.4,1.03-1.73-4.67-7.86-9.3-15.74-13.95-23.6-.26-.44-.28-1.24-1.02-1.14-.63.09-.68.8-.9,1.29-1.77,4-3.49,8.04-5.32,12.01-2.15,4.65-4.48,9.2-9.21,12.37Z"/>
    <path class="cls-1" d="M398.49,183.25c4.35,11.5,11.31,20.15,23.51,23.17.11.73-.18.83-.38.8-4.96-.76-10-1.29-14.7-3.08-7.68-2.92-10.98-10.2-8.95-19.09.14-.61.34-1.21.52-1.81Z"/>
    <path class="cls-1" d="M523.2,167.87c.28-7.45,3.45-13.54,9.09-18.4.43-.37.96-1.2,1.59-.6.86.81-.28,1.22-.65,1.65-3.63,4.24-5.01,9.13-4.41,14.63.25,2.33-.02,4.61-.83,6.81-.41,1.13-.81,2.33-2.37,2.26-1.74-.07-1.91-1.48-2.13-2.71-.21-1.17-.2-2.37-.29-3.65Z"/>
    <path class="cls-1" d="M321.71,178.44c.05,2.42-.26,4.77-1.13,7.04-.41,1.07-1.02,1.79-2.27,1.7-1.19-.09-1.6-.95-1.85-1.9-.66-2.51-.66-5.04-.02-7.57,1.35-5.37.67-10.42-2.41-15.09-.31-.48-1.1-1.06-.39-1.63.7-.56,1.12.32,1.49.74,4.25,4.76,6.54,10.3,6.57,16.72Z"/>
    <path class="cls-1" d="M398.91,211.52c-3.57.01-7.56-4.09-7.51-7.72.03-2.15,1.1-2.84,2.9-1.71,2.6,1.63,4.77,3.76,6.33,6.41,1.04,1.75.24,3.01-1.72,3.01Z"/>
    <path class="cls-1" d="M410.87,106.09c2.36-.05,4.62.41,6.84,1.11,1.08.34,1.83.96,1.7,2.25-.12,1.22-1.01,1.57-1.98,1.74-11.28,1.9-21.69,6.29-31.99,11.04-.57.26-1.18.52-1.79.59-.81.1-1.6-.09-2.01-.96-.36-.77-.08-1.44.45-1.96,8.02-7.89,17.24-13.29,28.78-13.81Z"/>
    <path class="cls-1" d="M452.54,83.01c-12.61-.46-25.11-1.79-37.14-5.9-1.36-.47-3.84-.63-3.52-2.37.2-1.06,2.66-.17,4.09.04,14.59,2.1,29.18,4.22,43.77,6.34.68.1,1.73-.1,1.78.79.06,1.05-1.04,1.07-1.81,1.08-2.39.05-4.78.02-7.17.02Z"/>
    <path class="cls-1" d="M406.69,82.94c7.99,2.12,15.98,4.25,23.97,6.37l-.19.73c-8.43-.44-16.44-2.51-23.98-6.34.07-.25.13-.51.2-.76Z"/>
    <path class="cls-1" d="M458.02,90.38c-5.07,1.59-17.63-.37-21.27-3.13,7.48,1.1,14.38,2.12,21.27,3.13Z"/>
    <path class="cls-1" d="M460.37,144.91c-.11,2.66-1.12,5.42-4.16,6.96-2.37,1.2-4.69.77-6.68-.92-2.92-2.48-3.54-5.77-2.75-9.33.82-3.68,3.84-5.82,7.31-5.42,3.48.4,6.22,3.96,6.27,8.71Z"/>
    <path class="cls-1" d="M408.72,147.25c-.05,5.45-4.43,9.25-8.9,7.75-3.47-1.16-5.58-5.34-4.85-9.62.66-3.89,3.59-6.49,7.15-6.35,3.77.14,6.65,3.72,6.6,8.22Z"/>
  </g>
</svg>