<svg width="37" height="37" viewBox="0 0 37 37" fill="none" xmlns="http://www.w3.org/2000/svg">
<path fill-rule="evenodd" clip-rule="evenodd" d="M0.5 17.9595C0.5 7.9293 8.3615 0.5 18.5 0.5C28.6385 0.5 36.5 7.9338 36.5 17.964C36.5 27.9942 28.6385 35.4235 18.5 35.4235C16.6775 35.4235 14.9315 35.1805 13.289 34.7306C12.9695 34.6451 12.6275 34.6676 12.326 34.8026L8.753 36.3775C8.53721 36.4727 8.30133 36.5134 8.06612 36.4961C7.8309 36.4788 7.60353 36.404 7.404 36.2782C7.20447 36.1525 7.03889 35.9796 6.9218 35.7749C6.80471 35.5701 6.73971 35.3398 6.7325 35.104L6.6335 31.9001C6.6245 31.5041 6.4445 31.1352 6.152 30.8742C2.651 27.7423 0.5 23.2064 0.5 17.9595ZM12.9785 14.6791L7.69102 23.0669C7.18252 23.8724 8.17252 24.7768 8.92852 24.2009L14.6075 19.89C14.7944 19.748 15.0224 19.6708 15.257 19.67C15.4917 19.6692 15.7202 19.7448 15.908 19.8855L20.1155 23.0399C20.4139 23.264 20.7556 23.4238 21.1189 23.5092C21.4822 23.5947 21.8593 23.6038 22.2264 23.5362C22.5934 23.4685 22.9424 23.3255 23.2514 23.1162C23.5604 22.9068 23.8226 22.6357 24.0215 22.3199L29.3135 13.9366C29.8175 13.1312 28.8275 12.2222 28.0715 12.7982L22.3925 17.109C22.2057 17.251 21.9777 17.3282 21.743 17.329C21.5084 17.3298 21.2799 17.2542 21.092 17.1135L16.8845 13.9591C16.5861 13.735 16.2444 13.5752 15.8811 13.4898C15.5178 13.4044 15.1407 13.3952 14.7737 13.4628C14.4066 13.5305 14.0576 13.6735 13.7486 13.8828C13.4396 14.0922 13.1774 14.3633 12.9785 14.6791Z" fill="#9BAC8A"/>
</svg>
