<svg width="37" height="37" viewBox="0 0 37 37" fill="none" xmlns="http://www.w3.org/2000/svg">
<path d="M0.5 36.5L3.03049 27.2555C1.469 24.5495 0.6485 21.482 0.65 18.3365C0.6545 8.50254 8.65698 0.500061 18.4895 0.500061C23.261 0.501561 27.7399 2.36006 31.1089 5.73205C34.4764 9.10404 36.3304 13.586 36.3289 18.353C36.3244 28.1885 28.3219 36.191 18.4895 36.191C15.5045 36.1895 12.563 35.441 9.95748 34.019L0.5 36.5ZM10.3955 30.7895C12.9095 32.282 15.3095 33.176 18.4835 33.1775C26.6554 33.1775 33.3124 26.5265 33.3169 18.35C33.3199 10.157 26.6944 3.51505 18.4955 3.51205C10.3175 3.51205 3.66499 10.163 3.66199 18.338C3.66049 21.6755 4.63849 24.1745 6.28099 26.789L4.78249 32.261L10.3955 30.7895ZM27.4759 22.5935C27.3649 22.4075 27.0679 22.2965 26.6209 22.073C26.1754 21.8495 23.9839 20.771 23.5744 20.6225C23.1664 20.474 22.8694 20.399 22.571 20.846C22.274 21.2915 21.419 22.2965 21.1595 22.5935C20.9 22.8905 20.639 22.928 20.1935 22.7045C19.748 22.481 18.311 22.0115 16.6085 20.492C15.284 19.31 14.3885 17.8505 14.129 17.4035C13.8695 16.958 14.102 16.7165 14.324 16.4945C14.525 16.295 14.7695 15.974 14.993 15.713C15.2195 15.455 15.293 15.269 15.443 14.9705C15.5915 14.6735 15.518 14.4125 15.4055 14.189C15.293 13.967 14.402 11.7725 14.0315 10.88C13.6685 10.0115 13.301 10.1285 13.028 10.115L12.173 10.1C11.876 10.1 11.393 10.211 10.985 10.658C10.577 11.105 9.42498 12.182 9.42498 14.3765C9.42498 16.571 11.0225 18.6905 11.2445 18.9875C11.468 19.2845 14.387 23.7875 18.8585 25.718C19.922 26.177 20.753 26.4515 21.3995 26.657C22.4675 26.996 23.4394 26.948 24.2074 26.834C25.0639 26.7065 26.8444 25.7555 27.2164 24.7145C27.5884 23.672 27.5884 22.7795 27.4759 22.5935Z" fill="#9BAC8A"/>
</svg>
