<svg width="57" height="30" viewBox="0 0 57 30" fill="none" xmlns="http://www.w3.org/2000/svg">
<path d="M0.90625 3.75C0.90625 1.67895 2.68436 0 4.87772 0H28.7065C35.2869 0 40.6209 5.03681 40.6209 11.25V26.25C40.6209 28.3211 38.8429 30 36.6495 30H12.8207C6.24053 30 0.90625 24.9634 0.90625 18.75V3.75Z" fill="#9BAC8A"/>
<path d="M42.6094 14.0685C42.6094 12.252 43.3076 10.497 44.5745 9.12973L51.2894 1.88384C53.1004 -0.0705895 56.5095 1.1389 56.5095 3.73585V26.2654C56.5095 28.8622 53.1004 30.0716 51.2894 28.1171L44.5745 20.8714C43.3076 19.5041 42.6094 17.7491 42.6094 15.9326V14.0685Z" fill="#9BAC8A"/>
</svg>
