<svg width="28" height="29" viewBox="0 0 28 29" fill="none" xmlns="http://www.w3.org/2000/svg">
<path d="M23.3333 4.96631H4.66668C3.38334 4.96631 2.34501 6.01631 2.34501 7.29964L2.33334 21.2996C2.33334 22.583 3.38334 23.633 4.66668 23.633H23.3333C24.6167 23.633 25.6667 22.583 25.6667 21.2996V7.29964C25.6667 6.01631 24.6167 4.96631 23.3333 4.96631ZM22.8667 9.92464L14.6183 15.0813C14.245 15.3146 13.755 15.3146 13.3817 15.0813L5.13334 9.92464C5.01636 9.85897 4.91392 9.77025 4.83221 9.66384C4.75051 9.55743 4.69125 9.43555 4.65801 9.30557C4.62478 9.1756 4.61826 9.04023 4.63886 8.90767C4.65946 8.7751 4.70674 8.64809 4.77784 8.53433C4.84894 8.42056 4.94239 8.32241 5.05252 8.2458C5.16266 8.1692 5.28719 8.11574 5.41859 8.08866C5.54998 8.06158 5.68551 8.06144 5.81696 8.08825C5.94841 8.11506 6.07305 8.16826 6.18334 8.24464L14 13.133L21.8167 8.24464C21.927 8.16826 22.0516 8.11506 22.1831 8.08825C22.3145 8.06144 22.45 8.06158 22.5814 8.08866C22.7128 8.11574 22.8374 8.1692 22.9475 8.2458C23.0576 8.32241 23.1511 8.42056 23.2222 8.53433C23.2933 8.64809 23.3406 8.7751 23.3612 8.90767C23.3818 9.04023 23.3752 9.1756 23.342 9.30557C23.3088 9.43555 23.2495 9.55743 23.1678 9.66384C23.0861 9.77025 22.9837 9.85897 22.8667 9.92464Z" fill="#9BAC8A"/>
</svg>
