<svg width="25" height="24" viewBox="0 0 25 24" fill="none" xmlns="http://www.w3.org/2000/svg">
<path d="M8.00103 6.08517C5.48549 7.38362 3.89313 9.54721 3.10186 10.8666C2.67959 11.5708 2.67959 12.4292 3.10186 13.1334C4.29014 15.1148 7.28504 19 12.5001 19C15.1127 19 17.1682 18.0249 18.7184 16.8025L15.2082 13.2923C14.7254 14.3023 13.6942 15 12.5001 15C10.8432 15 9.50007 13.6569 9.50007 12C9.50007 10.8059 10.1977 9.77469 11.2077 9.29186L8.00103 6.08517Z" fill="#9BAC8A"/>
<path d="M20.1823 15.438C20.9495 14.6013 21.5169 13.7693 21.8983 13.1334C22.3205 12.4292 22.3205 11.5708 21.8983 10.8666C20.71 8.88521 17.7151 5 12.5001 5C11.6203 5 10.8036 5.11058 10.0482 5.30394L20.1823 15.438Z" fill="#9BAC8A"/>
<path fill-rule="evenodd" clip-rule="evenodd" d="M2.79289 2.29289C3.18342 1.90237 3.81658 1.90237 4.20711 2.29289L22.2071 20.2929C22.5976 20.6834 22.5976 21.3166 22.2071 21.7071C21.8166 22.0976 21.1834 22.0976 20.7929 21.7071L2.79289 3.70711C2.40237 3.31658 2.40237 2.68342 2.79289 2.29289Z" fill="#9BAC8A"/>
</svg>
