<svg width="12" height="15" viewBox="0 0 12 15" fill="none" xmlns="http://www.w3.org/2000/svg">
<path fill-rule="evenodd" clip-rule="evenodd" d="M11.6912 6.10799C11.6912 7.45391 11.224 8.69071 10.4429 9.66506H10.4462C10.4462 9.66506 8.46825 12.312 6.93595 14.1862C6.44709 14.7841 5.55288 14.7839 5.06432 14.1857C3.5369 12.3156 1.56147 9.6708 1.56147 9.6708L1.55686 9.66506C0.775792 8.69071 0.308594 7.45391 0.308594 6.10799C0.308594 2.96477 2.85668 0.416687 5.9999 0.416687C9.14312 0.416687 11.6912 2.96477 11.6912 6.10799ZM8.12499 6.08335C8.12499 7.25696 7.17359 8.20835 5.99999 8.20835C4.82638 8.20835 3.87499 7.25696 3.87499 6.08335C3.87499 4.90975 4.82638 3.95835 5.99999 3.95835C7.17359 3.95835 8.12499 4.90975 8.12499 6.08335Z" fill="#9BAC8A"/>
</svg>
