<svg width="28" height="29" viewBox="0 0 28 29" fill="none" xmlns="http://www.w3.org/2000/svg">
<path d="M14 4.2998C12.845 4.2998 11.7374 4.7793 10.9207 5.63281C10.104 6.48633 9.64516 7.64394 9.64516 8.85098C9.64516 10.058 10.104 11.2156 10.9207 12.0692C11.7374 12.9227 12.845 13.4022 14 13.4022C15.155 13.4022 16.2626 12.9227 17.0793 12.0692C17.896 11.2156 18.3548 10.058 18.3548 8.85098C18.3548 7.64394 17.896 6.48633 17.0793 5.63281C16.2626 4.7793 15.155 4.2998 14 4.2998ZM9.35484 15.8295C8.19986 15.8295 7.09219 16.309 6.2755 17.1625C5.45881 18.016 5 19.1736 5 20.3806V21.8224C5 22.7375 5.63406 23.5167 6.49806 23.6635C11.4661 24.5119 16.5339 24.5119 21.5019 23.6635C21.9201 23.5924 22.3004 23.3681 22.5748 23.0308C22.8493 22.6935 23 22.2652 23 21.8224V20.3806C23 19.1736 22.5412 18.016 21.7245 17.1625C20.9078 16.309 19.8001 15.8295 18.6452 15.8295H18.2503C18.0355 15.8295 17.8218 15.8659 17.6186 15.9338L16.6129 16.2773C14.915 16.8565 13.085 16.8565 11.3871 16.2773L10.3814 15.9338C10.1778 15.8646 9.96498 15.8293 9.75084 15.8295H9.35484Z" fill="#9BAC8A"/>
</svg>
