<svg width="31" height="28" viewBox="0 0 31 28" fill="none" xmlns="http://www.w3.org/2000/svg">
<path d="M27.9 0H3.1C1.395 0 0.0155 1.356 0.0155 3.01334L0 26.4873C0 27.8282 1.674 28.5062 2.6505 27.557L6.2 24.1067H27.9C29.605 24.1067 31 22.7507 31 21.0934V3.01334C31 1.356 29.605 0 27.9 0ZM20.8254 14.1727L19.0429 13.5751V15.4534C19.0429 16.2821 18.3454 16.9601 17.4929 16.9601H10.4071C9.55464 16.9601 8.85714 16.2821 8.85714 15.4534V8.65336C8.85714 7.82469 9.55464 7.14669 10.4071 7.14669H17.4929C18.3454 7.14669 19.0429 7.82469 19.0429 8.65336V10.5316L20.8254 9.93403C21.3059 9.45189 22.1429 9.79843 22.1429 10.4614V13.6303C22.1429 14.3083 21.3059 14.6549 20.8254 14.1727Z" fill="#9BAC8A"/>
</svg>
