<svg width="49" height="45" viewBox="0 0 49 45" fill="none" xmlns="http://www.w3.org/2000/svg">
<path d="M26.6813 13.8436C30.5007 13.8436 33.5969 10.7446 33.5969 6.92181C33.5969 3.099 30.5007 0 26.6813 0C22.8619 0 19.7656 3.099 19.7656 6.92181C19.7656 10.7446 22.8619 13.8436 26.6813 13.8436Z" fill="#9BAC8A"/>
<path d="M42.2411 14.3377C45.1054 14.3377 47.4274 12.0136 47.4274 9.14668C47.4274 6.27977 45.1054 3.95569 42.2411 3.95569C39.3767 3.95569 37.0547 6.27977 37.0547 9.14668C37.0547 12.0136 39.3767 14.3377 42.2411 14.3377Z" fill="#9BAC8A"/>
<path d="M47.129 15.821H37.8141C37.613 15.821 37.4201 15.9211 37.2778 16.0991C37.1356 16.2771 37.0557 16.5185 37.0557 16.7703V28.7985C37.03 30.5393 37.483 32.2384 38.3388 33.611C39.1945 34.9837 40.4011 35.9467 41.7564 36.3388C42.6196 36.5655 43.5124 36.5484 44.3697 36.2888C45.2269 36.0291 46.0272 35.5335 46.7121 34.8379C47.397 34.1423 47.9494 33.2643 48.329 32.2677C48.7086 31.2712 48.9058 30.1813 48.9064 29.0773V18.0458C48.9064 17.4557 48.7191 16.8899 48.3858 16.4726C48.0525 16.0554 47.6004 15.821 47.129 15.821Z" fill="#9BAC8A"/>
<path d="M38.5353 18.0458V32.1356C38.5368 34.7467 37.6771 37.2853 36.0897 39.3574C34.5022 41.4295 32.2758 42.9193 29.756 43.5954C27.2362 44.2716 24.5638 44.0964 22.1537 43.0969C19.7435 42.0975 17.7303 40.3298 16.4265 38.0681C16.1414 37.5938 15.8937 37.0979 15.6856 36.585C15.4917 36.1014 15.3284 35.606 15.1966 35.1019C14.9523 34.132 14.8279 33.1358 14.8262 32.1356V18.0458C14.8258 17.7535 14.883 17.464 14.9946 17.1939C15.1061 16.9238 15.2699 16.6784 15.4763 16.4718C15.6828 16.2651 15.928 16.1013 16.1978 15.9896C16.4677 15.8779 16.7569 15.8207 17.0489 15.821H36.3126C36.6046 15.8207 36.8938 15.8779 37.1637 15.9896C37.4335 16.1013 37.6787 16.2651 37.8852 16.4718C38.0916 16.6784 38.2554 16.9238 38.3669 17.1939C38.4785 17.464 38.5357 17.7535 38.5353 18.0458Z" fill="#9BAC8A" stroke="white" stroke-width="2"/>
<path d="M3.4655 9.88855H23.2241C23.748 9.88855 24.2504 10.0968 24.6208 10.4676C24.9913 10.8384 25.1994 11.3412 25.1994 11.8656V31.6418C25.1994 32.1661 24.9913 32.669 24.6208 33.0397C24.2504 33.4105 23.748 33.6188 23.2241 33.6188H3.4655C2.94163 33.6188 2.43921 33.4105 2.06878 33.0397C1.69834 32.669 1.49023 32.1661 1.49023 31.6418L1.49023 11.8656C1.49023 11.3412 1.69834 10.8384 2.06878 10.4676C2.43921 10.0968 2.94163 9.88855 3.4655 9.88855Z" fill="#9BAC8A" stroke="white" stroke-width="2"/>
<path d="M19.2426 17.2671H14.8119V29.1619H11.9046V17.2671H7.44727V14.3453H19.2426V17.2671Z" fill="white" stroke="white"/>
</svg>
